<?xml version="1.0" encoding="utf-8"?>
<!-- Generator: Adobe Illustrator 16.0.3, SVG Export Plug-In . SVG Version: 6.00 Build 0)  -->
<!DOCTYPE svg PUBLIC "-//W3C//DTD SVG 1.1//EN" "http://www.w3.org/Graphics/SVG/1.1/DTD/svg11.dtd">
<svg version="1.1" id="Layer_1" xmlns="http://www.w3.org/2000/svg" xmlns:xlink="http://www.w3.org/1999/xlink" x="0px" y="0px"
	 width="792px" height="1300.003px" viewBox="0 0 792 1300.003" enable-background="new 0 0 792 1300.003" xml:space="preserve">
<rect y="2" fill="#EEEEEE" width="792" height="524"/>
<rect x="1" y="1051" fill="#EEEEEE" width="792" height="249"/>
<g>
	<g>
		<defs>
			<rect id="SVGID_1_" x="242.972" y="72.001" width="305.999" height="117.854"/>
		</defs>
		<clipPath id="SVGID_2_">
			<use xlink:href="#SVGID_1_"  overflow="visible"/>
		</clipPath>
		<g clip-path="url(#SVGID_2_)">
			<defs>
				<rect id="SVGID_3_" x="242.972" y="72.001" width="305.999" height="117.854"/>
			</defs>
			<clipPath id="SVGID_4_">
				<use xlink:href="#SVGID_3_"  overflow="visible"/>
			</clipPath>
			<path clip-path="url(#SVGID_4_)" fill="#3573D9" d="M277.178,109.92c-1.022-0.557-2.695-0.557-3.717,0l-28.631,15.618
				c-1.022,0.557-1.858,1.967-1.858,3.13v41.642c0,1.163,0.881,2.479,1.958,2.924l28.433,11.717c1.077,0.443,2.838,0.443,3.915,0
				l28.433-11.717c1.077-0.445,1.958-1.761,1.958-2.924v-41.642c0-1.163-0.836-2.573-1.858-3.13L277.178,109.92z M286.494,152.896
				c0,1.165-0.864,2.518-1.922,3.006l-6.743,3.117c-1.057,0.488-2.786,0.488-3.843,0l-6.743-3.117
				c-1.057-0.488-1.922-1.841-1.922-3.006v-10.249c0-1.165,0.836-2.573,1.859-3.131l6.869-3.747c1.022-0.558,2.695-0.558,3.717,0
				l6.869,3.747c1.022,0.559,1.859,1.966,1.859,3.131V152.896z"/>
			<path clip-path="url(#SVGID_4_)" fill="#2E302C" d="M397.662,132.203c-1.023,0.558-1.774,1.966-1.774,3.131v41.64
				c0,1.165,0.675,1.543,1.604,0.841l19.014-14.329c0.929-0.701,1.731-2.229,1.731-3.394v-10.78c0-1.163,0.751-2.572,1.773-3.129
				l6.827-3.748c1.022-0.558,2.673-0.558,3.694,0l6.945,3.748c1.021,0.557,1.933,1.966,1.933,3.129v10.78
				c0,1.165,0.688,2.674,1.633,3.354l17.78,12.784c0.944,0.681,1.76,0.284,1.76-0.879v-40.018c0-1.165-0.921-2.574-1.943-3.131
				l-28.673-15.616c-1.022-0.558-2.674-0.558-3.696,0L397.662,132.203z"/>
			<path clip-path="url(#SVGID_4_)" fill="#2E302C" d="M321.021,72.334c-0.945-0.681-1.592-0.285-1.592,0.88v97.656
				c0,1.165,0.713,2.567,1.74,3.117l29.266,15.645c1.027,0.55,1.931,0.046,1.931-1.118v-21.615c0-1.165-0.982-2.538-2.028-3.051
				l-7.897-3.907c-1.045-0.514-1.837-1.887-1.837-3.051V88.473c0-1.165-0.836-2.674-1.781-3.354L321.021,72.334z"/>
			
				<path clip-path="url(#SVGID_4_)" fill="none" stroke="#FFFFFF" stroke-width="0" stroke-linecap="round" stroke-linejoin="round" d="
				M321.021,72.334c-0.945-0.681-1.592-0.285-1.592,0.88v97.656c0,1.165,0.713,2.567,1.74,3.117l29.266,15.645
				c1.027,0.55,1.931,0.046,1.931-1.118v-21.615c0-1.165-0.982-2.538-2.028-3.051l-7.897-3.907
				c-1.045-0.514-1.837-1.887-1.837-3.051V88.473c0-1.165-0.836-2.674-1.781-3.354L321.021,72.334z"/>
			<path clip-path="url(#SVGID_4_)" fill="#3573D9" d="M364.748,152.022c-0.988,0.617-1.795,2.076-1.795,3.239v10.779
				c0,1.165,0.76,2.693,1.689,3.394l18.97,14.329c0.929,0.702,1.69,0.323,1.69-0.841v-41.64c0-1.165-0.808-1.612-1.796-0.996
				L364.748,152.022z"/>
			<path clip-path="url(#SVGID_4_)" fill="#3573D9" d="M364.737,122.735c-0.982,0.626-1.786,2.091-1.786,3.256v16.804
				c0,1.163,0.808,1.611,1.796,0.994l18.758-11.735c0.988-0.617,1.795-2.075,1.795-3.239v-17.075c0-1.163-0.802-1.604-1.784-0.979
				L364.737,122.735z"/>
			<path clip-path="url(#SVGID_4_)" fill="#3573D9" d="M511.903,189.115c-1.114,0-2.229-0.293-3.206-0.86l-10.228-6.051
				c-1.526-0.853-0.778-1.156-0.278-1.333c2.041-0.705,2.451-0.87,4.624-2.104c0.227-0.125,0.528-0.078,0.763,0.059l7.855,4.664
				c0.283,0.158,0.686,0.158,0.948,0l30.621-17.675c0.288-0.167,0.468-0.491,0.468-0.831v-35.336c0-0.346-0.179-0.67-0.474-0.843
				l-30.612-17.659c-0.281-0.167-0.658-0.167-0.942,0l-30.603,17.662c-0.299,0.169-0.484,0.504-0.484,0.84v35.34
				c0,0.338,0.186,0.655,0.482,0.82l8.391,4.845c4.55,2.272,7.337-0.407,7.337-3.096V132.66c0-0.49,0.396-0.88,0.894-0.88h3.878
				c0.489,0,0.89,0.39,0.89,0.88v34.897c0,6.074-3.311,9.557-9.068,9.557c-1.769,0-3.162,0-7.053-1.917l-8.029-4.62
				c-1.982-1.146-3.212-3.296-3.212-5.589v-35.34c0-2.296,1.229-4.439,3.212-5.581l30.623-17.696c1.938-1.096,4.512-1.096,6.436,0
				l30.619,17.696c1.986,1.146,3.217,3.285,3.217,5.581v35.34c0,2.293-1.231,4.431-3.217,5.589l-30.619,17.678
				C514.152,188.822,513.043,189.115,511.903,189.115"/>
			<path clip-path="url(#SVGID_4_)" fill="#3573D9" d="M521.365,164.767c-13.398,0-16.209-6.15-16.209-11.31
				c0-0.492,0.394-0.883,0.885-0.883h3.962c0.442,0,0.813,0.313,0.883,0.748c0.596,4.032,2.38,6.066,10.479,6.066
				c6.454,0,9.198-1.461,9.198-4.882c0-1.978-0.778-3.438-10.8-4.418c-8.379-0.829-13.564-2.682-13.564-9.384
				c0-6.179,5.205-9.862,13.938-9.862c9.816,0,14.667,3.406,15.283,10.708c0.024,0.252-0.063,0.49-0.233,0.683
				c-0.167,0.175-0.401,0.281-0.65,0.281h-3.973c-0.409,0-0.778-0.294-0.858-0.692c-0.953-4.241-3.273-5.597-9.568-5.597
				c-7.043,0-7.859,2.454-7.859,4.29c0,2.227,0.967,2.876,10.477,4.137c9.409,1.244,13.878,3.003,13.878,9.621
				C536.636,160.944,531.07,164.767,521.365,164.767"/>
		</g>
	</g>
</g>
<rect x="38.484" y="1087.999" fill="none" width="717.034" height="32.149"/>
<text transform="matrix(1 0 0 1 39.4561 1115.4531)" fill="#3573D9" font-family="'Montserrat-Regular'" font-size="37">Course On Modern Web Development</text>
<g>
	<path fill="#3573D9" d="M729.828,280.73c0,1.988-1.611,3.6-3.6,3.6H623.428c-1.988,0-3.6-1.611-3.6-3.6v-67.801
		c0-1.988,1.611-3.6,3.6-3.6h102.801c1.988,0,3.6,1.611,3.6,3.6V280.73z"/>
	<text transform="matrix(1 0 0 1 655.332 251.6255)" fill="#FFFFFF" font-family="'Montserrat-Regular'" font-size="16">Agile</text>
</g>
<g>
	<path fill="#3573D9" d="M173.137,282.732c0,1.988-1.611,3.6-3.6,3.6H66.736c-1.988,0-3.6-1.611-3.6-3.6v-67.801
		c0-1.988,1.611-3.6,3.6-3.6h102.801c1.988,0,3.6,1.611,3.6,3.6V282.732z"/>
	<text transform="matrix(1 0 0 1 105.5449 253.627)" fill="#FFFFFF" font-family="'Montserrat-Regular'" font-size="16">Git</text>
</g>
<g>
	<g>
		<path fill="#F69A58" d="M730.829,438.905c0,1.988-1.612,3.6-3.601,3.6H624.43c-1.988,0-3.601-1.611-3.601-3.6v-67.801
			c0-1.988,1.612-3.6,3.601-3.6h102.799c1.988,0,3.601,1.611,3.601,3.6V438.905z"/>
		<text transform="matrix(1 0 0 1 644.541 409.8003)" fill="#FFFFFF" font-family="'Montserrat-Regular'" font-size="16">Express</text>
	</g>
	<g>
		<path fill="#F69A58" d="M618.897,438.905c0,1.988-1.612,3.6-3.601,3.6H512.498c-1.988,0-3.601-1.611-3.601-3.6v-67.801
			c0-1.988,1.612-3.6,3.601-3.6h102.799c1.988,0,3.601,1.611,3.601,3.6V438.905z"/>
		<text transform="matrix(1 0 0 1 523.2988 409.8003)" fill="#FFFFFF" font-family="'Montserrat-Regular'" font-size="16">MongoDB</text>
	</g>
	<g>
		<path fill="#F69A58" d="M395.034,438.905c0,1.988-1.612,3.6-3.601,3.6H288.635c-1.988,0-3.601-1.611-3.601-3.6v-67.801
			c0-1.988,1.612-3.6,3.601-3.6h102.799c1.988,0,3.601,1.611,3.601,3.6V438.905z"/>
		<text transform="matrix(1 0 0 1 317.8101 409.8003)" fill="#FFFFFF" font-family="'Montserrat-Regular'" font-size="16">Node</text>
	</g>
	<g>
		<path fill="#F69A58" d="M506.966,438.905c0,1.988-1.612,3.6-3.601,3.6H400.566c-1.988,0-3.601-1.611-3.601-3.6v-67.801
			c0-1.988,1.612-3.6,3.601-3.6h102.799c1.988,0,3.601,1.611,3.601,3.6V438.905z"/>
		<text transform="matrix(1 0 0 1 431.0381 409.8003)" fill="#FFFFFF" font-family="'Montserrat-Regular'" font-size="16">REST</text>
	</g>
	<g>
		<path fill="#F69A58" d="M283.103,438.905c0,1.988-1.612,3.6-3.601,3.6H176.703c-1.988,0-3.601-1.611-3.601-3.6v-67.801
			c0-1.988,1.612-3.6,3.601-3.6h102.799c1.988,0,3.601,1.611,3.601,3.6V438.905z"/>
		<text transform="matrix(1 0 0 1 192.7266 409.8003)" fill="#FFFFFF" font-family="'Montserrat-Regular'" font-size="16">Passport</text>
	</g>
	<g>
		<path fill="#F69A58" d="M171.171,438.905c0,1.988-1.612,3.6-3.601,3.6H64.771c-1.988,0-3.601-1.611-3.601-3.6v-67.801
			c0-1.988,1.612-3.6,3.601-3.6H167.57c1.988,0,3.601,1.611,3.601,3.6V438.905z"/>
		<text transform="matrix(1 0 0 1 88.6187 409.8003)" fill="#FFFFFF" font-family="'Montserrat-Regular'" font-size="16">Mocha</text>
	</g>
</g>
<g>
	<g>
		<path fill="#3573D9" d="M787.795,517.992c0,1.988-1.611,3.6-3.6,3.6H681.396c-1.988,0-3.602-1.611-3.602-3.6v-67.801
			c0-1.988,1.613-3.6,3.602-3.6h102.799c1.988,0,3.6,1.611,3.6,3.6V517.992z"/>
		<text transform="matrix(1 0 0 1 714.8438 488.8877)" fill="#FFFFFF" font-family="'Montserrat-Regular'" font-size="16">APIs</text>
	</g>
	<g>
		<path fill="#3573D9" d="M675.863,517.992c0,1.988-1.611,3.6-3.6,3.6H569.465c-1.988,0-3.602-1.611-3.602-3.6v-67.801
			c0-1.988,1.613-3.6,3.602-3.6h102.799c1.988,0,3.6,1.611,3.6,3.6V517.992z"/>
		<text transform="matrix(1 0 0 1 570.7207 488.8877)" fill="#FFFFFF" font-family="'Montserrat-Regular'" font-size="16">Deployment</text>
	</g>
	<g>
		<path fill="#3573D9" d="M563.932,517.992c0,1.988-1.611,3.6-3.6,3.6H457.533c-1.988,0-3.602-1.611-3.602-3.6v-67.801
			c0-1.988,1.613-3.6,3.602-3.6h102.799c1.988,0,3.6,1.611,3.6,3.6V517.992z"/>
		<text transform="matrix(1 0 0 1 467.8125 488.8877)" fill="#FFFFFF" font-family="'Montserrat-Regular'" font-size="16">Javascript</text>
	</g>
	<g>
		<path fill="#3573D9" d="M452,517.992c0,1.988-1.613,3.6-3.602,3.6H345.601c-1.988,0-3.601-1.611-3.601-3.6v-67.801
			c0-1.988,1.612-3.6,3.601-3.6h102.798c1.988,0,3.602,1.611,3.602,3.6V517.992z"/>
		<text transform="matrix(1 0 0 1 375.3364 488.8877)" fill="#FFFFFF" font-family="'Montserrat-Regular'" font-size="16">AJAX</text>
	</g>
	<g>
		<path fill="#3573D9" d="M340.068,517.992c0,1.988-1.612,3.6-3.601,3.6H233.669c-1.988,0-3.601-1.611-3.601-3.6v-67.801
			c0-1.988,1.612-3.6,3.601-3.6h102.799c1.988,0,3.601,1.611,3.601,3.6V517.992z"/>
		<text transform="matrix(1 0 0 1 241.2529 488.8877)" fill="#FFFFFF" font-family="'Montserrat-Regular'" font-size="16">Modularity</text>
	</g>
	<g>
		<path fill="#3573D9" d="M228.137,517.992c0,1.988-1.612,3.6-3.601,3.6H121.737c-1.988,0-3.601-1.611-3.601-3.6v-67.801
			c0-1.988,1.612-3.6,3.601-3.6h102.799c1.988,0,3.601,1.611,3.601,3.6V517.992z"/>
		<text transform="matrix(1 0 0 1 140.5522 488.8877)" fill="#FFFFFF" font-family="'Montserrat-Regular'" font-size="16">Internet</text>
	</g>
	<g>
		<path fill="#3573D9" d="M116.205,517.992c0,1.988-1.612,3.6-3.601,3.6H9.806c-1.988,0-3.601-1.611-3.601-3.6v-67.801
			c0-1.988,1.612-3.6,3.601-3.6h102.799c1.988,0,3.601,1.611,3.601,3.6V517.992z"/>
		<text transform="matrix(1 0 0 1 19.1011 488.8877)" fill="#FFFFFF" font-family="'Montserrat-Regular'" font-size="16">Databases</text>
	</g>
</g>
<g>
	<g>
		<path fill="#955DA0" d="M787.795,359.817c0,1.988-1.611,3.6-3.6,3.6H681.396c-1.988,0-3.602-1.611-3.602-3.6v-67.801
			c0-1.988,1.613-3.6,3.602-3.6h102.799c1.988,0,3.6,1.611,3.6,3.6V359.817z"/>
		<text transform="matrix(1 0 0 1 706.0039 330.7129)" fill="#FFFFFF" font-family="'Montserrat-Regular'" font-size="16">jQuery</text>
	</g>
	<g>
		<path fill="#955DA0" d="M675.863,359.817c0,1.988-1.611,3.6-3.6,3.6H569.465c-1.988,0-3.602-1.611-3.602-3.6v-67.801
			c0-1.988,1.613-3.6,3.602-3.6h102.799c1.988,0,3.6,1.611,3.6,3.6V359.817z"/>
		<text transform="matrix(1 0 0 1 595.0879 330.7129)" fill="#FFFFFF" font-family="'Montserrat-Regular'" font-size="16">Redux</text>
	</g>
	<g>
		<path fill="#955DA0" d="M228.137,359.817c0,1.988-1.612,3.6-3.601,3.6H121.737c-1.988,0-3.601-1.611-3.601-3.6v-67.801
			c0-1.988,1.612-3.6,3.601-3.6h102.799c1.988,0,3.601,1.611,3.601,3.6V359.817z"/>
		<text transform="matrix(1 0 0 1 157.1685 330.7129)" fill="#FFFFFF" font-family="'Montserrat-Regular'" font-size="16">CSS</text>
	</g>
	<g>
		<path fill="#955DA0" d="M116.205,359.817c0,1.988-1.612,3.6-3.601,3.6H9.806c-1.988,0-3.601-1.611-3.601-3.6v-67.801
			c0-1.988,1.612-3.6,3.601-3.6h102.799c1.988,0,3.601,1.611,3.601,3.6V359.817z"/>
		<text transform="matrix(1 0 0 1 37.7886 330.7129)" fill="#FFFFFF" font-family="'Montserrat-Regular'" font-size="16">React</text>
	</g>
</g>
<g>
	<g>
		<defs>
			<rect id="SVGID_5_" x="59.915" y="1147.219" width="674.168" height="108"/>
		</defs>
		<clipPath id="SVGID_6_">
			<use xlink:href="#SVGID_5_"  overflow="visible"/>
		</clipPath>
		<g clip-path="url(#SVGID_6_)">
			<defs>
				<rect id="SVGID_7_" x="59.915" y="1147.219" width="674.168" height="108"/>
			</defs>
			<clipPath id="SVGID_8_">
				<use xlink:href="#SVGID_7_"  overflow="visible"/>
			</clipPath>
			<g clip-path="url(#SVGID_8_)">
				<defs>
					<rect id="SVGID_9_" x="59.915" y="1147.219" width="674.168" height="108"/>
				</defs>
				<clipPath id="SVGID_10_">
					<use xlink:href="#SVGID_9_"  overflow="visible"/>
				</clipPath>
				<path clip-path="url(#SVGID_10_)" fill="#53C1DE" d="M399.777,1184.524c-1.137-0.39-2.28-0.75-3.435-1.082
					c0.192-0.777,0.37-1.559,0.532-2.342c2.598-12.619,0.9-22.785-4.905-26.132c-5.565-3.209-14.667,0.139-23.859,8.137
					c-0.905,0.79-1.791,1.603-2.656,2.438c-0.578-0.556-1.168-1.1-1.768-1.633c-9.633-8.553-19.289-12.157-25.088-8.803
					c-5.559,3.22-7.207,12.776-4.866,24.735c0.233,1.184,0.495,2.363,0.788,3.534c-1.365,0.388-2.685,0.801-3.948,1.241
					c-11.294,3.938-18.507,10.109-18.507,16.511c0,6.611,7.742,13.242,19.507,17.265c0.954,0.323,1.916,0.625,2.885,0.899
					c-0.315,1.263-0.595,2.533-0.838,3.81c-2.232,11.752-0.489,21.082,5.056,24.28c5.728,3.303,15.339-0.092,24.701-8.273
					c0.739-0.648,1.482-1.334,2.225-2.052c0.937,0.903,1.899,1.78,2.884,2.631c9.066,7.802,18.021,10.952,23.562,7.746
					c5.72-3.313,7.581-13.336,5.167-25.532c-0.184-0.932-0.398-1.882-0.64-2.852c0.675-0.198,1.337-0.405,1.982-0.62
					c12.231-4.052,20.188-10.603,20.188-17.302C418.745,1194.704,411.299,1188.49,399.777,1184.524"/>
				<path clip-path="url(#SVGID_10_)" fill="#FFFFFF" d="M397.124,1214.105c-0.582,0.193-1.182,0.379-1.791,0.561
					c-1.351-4.274-3.173-8.819-5.403-13.516c2.128-4.584,3.88-9.07,5.192-13.316c1.092,0.315,2.151,0.647,3.171,1
					c9.872,3.397,15.894,8.422,15.894,12.293C414.188,1205.252,407.684,1210.605,397.124,1214.105L397.124,1214.105z
					 M392.743,1222.787c1.067,5.394,1.221,10.269,0.513,14.08c-0.636,3.424-1.914,5.707-3.494,6.621
					c-3.361,1.948-10.551-0.582-18.304-7.254c-0.889-0.765-1.786-1.582-2.683-2.447c3.006-3.287,6.011-7.108,8.942-11.353
					c5.158-0.457,10.03-1.207,14.449-2.228C392.382,1221.084,392.577,1221.945,392.743,1222.787 M348.435,1243.152
					c-3.285,1.16-5.9,1.194-7.482,0.282c-3.365-1.94-4.764-9.433-2.856-19.483c0.227-1.187,0.487-2.367,0.78-3.541
					c4.369,0.967,9.206,1.662,14.375,2.082c2.951,4.153,6.042,7.971,9.157,11.313c-0.662,0.64-1.34,1.265-2.032,1.873
					C356.237,1239.295,352.09,1241.861,348.435,1243.152 M333.047,1214.08c-5.202-1.778-9.498-4.09-12.442-6.608
					c-2.646-2.269-3.982-4.519-3.982-6.345c0-3.883,5.791-8.837,15.451-12.205c1.212-0.421,2.436-0.806,3.672-1.155
					c1.335,4.341,3.086,8.881,5.199,13.472c-2.141,4.66-3.917,9.274-5.264,13.666C334.797,1214.65,333.918,1214.375,333.047,1214.08
					 M338.206,1178.968c-2.005-10.247-0.674-17.976,2.676-19.915c3.57-2.066,11.46,0.88,19.779,8.265
					c0.531,0.474,1.064,0.968,1.599,1.479c-3.098,3.328-6.161,7.117-9.087,11.246c-5.017,0.465-9.819,1.212-14.234,2.212
					C338.667,1181.165,338.423,1180.068,338.206,1178.968L338.206,1178.968z M384.221,1190.331
					c-1.043-1.803-2.125-3.581-3.244-5.335c3.404,0.429,6.665,1.001,9.727,1.699c-0.918,2.946-2.065,6.027-3.414,9.186
					C386.303,1194.011,385.281,1192.16,384.221,1190.331 M365.457,1172.053c2.101,2.277,4.207,4.82,6.277,7.578
					c-4.2-0.198-8.408-0.199-12.608-0.003C361.198,1176.896,363.321,1174.355,365.457,1172.053 M346.57,1190.361
					c-1.046,1.815-2.05,3.655-3.011,5.516c-1.327-3.146-2.462-6.241-3.389-9.23c3.044-0.681,6.289-1.236,9.671-1.66
					C348.709,1186.753,347.619,1188.545,346.57,1190.361 M349.938,1217.597c-3.493-0.392-6.788-0.92-9.831-1.582
					c0.941-3.041,2.102-6.203,3.457-9.418c0.965,1.862,1.974,3.705,3.026,5.521C347.662,1213.97,348.779,1215.795,349.938,1217.597
					 M365.583,1230.525c-2.16-2.33-4.315-4.908-6.419-7.681c2.043,0.079,4.125,0.12,6.242,0.12c2.174,0,4.324-0.049,6.439-0.143
					C369.767,1225.646,367.67,1228.228,365.583,1230.525 M387.333,1206.433c1.425,3.252,2.629,6.394,3.583,9.384
					c-3.093,0.707-6.433,1.276-9.952,1.698c1.128-1.787,2.22-3.599,3.275-5.431C385.313,1210.226,386.344,1208.34,387.333,1206.433
					 M380.292,1209.81c-1.617,2.806-3.323,5.56-5.119,8.257c-3.165,0.225-6.435,0.342-9.768,0.342c-3.32,0-6.549-0.103-9.659-0.304
					c-1.841-2.69-3.58-5.45-5.214-8.271c-1.625-2.807-3.143-5.674-4.55-8.597c1.404-2.923,2.918-5.79,4.537-8.6v0.001
					c1.619-2.81,3.346-5.556,5.173-8.235c3.173-0.239,6.426-0.364,9.714-0.364c3.303,0,6.56,0.126,9.732,0.368
					c1.809,2.674,3.524,5.41,5.14,8.207c1.626,2.802,3.159,5.656,4.599,8.558C383.451,1204.105,381.922,1206.984,380.292,1209.81
					 M389.693,1158.917c3.572,2.061,4.962,10.369,2.718,21.264c-0.149,0.71-0.308,1.417-0.481,2.121
					c-4.425-1.021-9.232-1.782-14.263-2.254c-2.932-4.174-5.969-7.969-9.018-11.255c0.799-0.771,1.617-1.521,2.453-2.25
					C378.979,1159.688,386.339,1156.982,389.693,1158.917"/>
				<path clip-path="url(#SVGID_10_)" fill="#53C1DE" d="M365.405,1191.603c5.261,0,9.525,4.265,9.525,9.525
					s-4.264,9.527-9.525,9.527c-5.262,0-9.526-4.267-9.526-9.527S360.143,1191.603,365.405,1191.603"/>
			</g>
			<g clip-path="url(#SVGID_8_)">
				<defs>
					<polygon id="SVGID_11_" points="472.854,1174.344 472.854,1228.26 519.545,1255.218 566.238,1228.26 566.238,1174.344 
						519.545,1147.387 					"/>
				</defs>
				<clipPath id="SVGID_12_">
					<use xlink:href="#SVGID_11_"  overflow="visible"/>
				</clipPath>
				
					<radialGradient id="SVGID_13_" cx="1.2925" cy="23.4517" r="1" gradientTransform="matrix(46.3529 0 0 53.5237 458.0938 -53.5938)" gradientUnits="userSpaceOnUse">
					<stop  offset="0" style="stop-color:#93B4E7"/>
					<stop  offset="0.5927" style="stop-color:#B9D1F8"/>
					<stop  offset="1" style="stop-color:#9CB6E0"/>
				</radialGradient>
				<rect x="472.854" y="1147.387" clip-path="url(#SVGID_12_)" fill="url(#SVGID_13_)" width="93.384" height="107.831"/>
			</g>
			<g clip-path="url(#SVGID_8_)">
				<defs>
					<rect id="SVGID_14_" x="59.915" y="1147.219" width="674.168" height="108"/>
				</defs>
				<clipPath id="SVGID_15_">
					<use xlink:href="#SVGID_14_"  overflow="visible"/>
				</clipPath>
				<polygon clip-path="url(#SVGID_15_)" fill="#6F95DB" points="519.546,1174.731 496.391,1188.101 496.391,1214.836 
					519.546,1228.206 542.701,1214.836 542.701,1188.101 				"/>
				<g opacity="0.1" clip-path="url(#SVGID_15_)">
					<g>
						<defs>
							<rect id="SVGID_16_" x="472.744" y="1147.22" width="93.58" height="107.898"/>
						</defs>
						<clipPath id="SVGID_17_">
							<use xlink:href="#SVGID_16_"  overflow="visible"/>
						</clipPath>
						<path clip-path="url(#SVGID_17_)" fill="#FFFFFF" d="M519.533,1147.219l-46.788,27.143l46.788,25.476l46.79-25.31
							L519.533,1147.219z M519.533,1203.334l-46.788,24.809l46.788,26.977l46.624-27.143L519.533,1203.334z"/>
					</g>
				</g>
				<path clip-path="url(#SVGID_15_)" fill="#FFFFFF" d="M86.553,1255.218l-2.875-0.981c0,0,0.352-14.657-4.909-15.709
					c-3.506-4.068,0.562-172.517,13.185-0.562c0,0-4.348,2.173-5.119,5.892C85.991,1247.503,86.553,1255.218,86.553,1255.218"/>
				<path clip-path="url(#SVGID_15_)" fill="#A6A385" d="M86.553,1255.218l-2.875-0.981c0,0,0.352-14.657-4.909-15.709
					c-3.506-4.068,0.562-172.517,13.185-0.562c0,0-4.348,2.173-5.119,5.892C85.991,1247.503,86.553,1255.218,86.553,1255.218"/>
				<path clip-path="url(#SVGID_15_)" fill="#FFFFFF" d="M88.096,1241.052c0,0,25.177-16.551,19.285-50.984
					c-5.68-25.035-19.075-33.241-20.548-36.396c-1.611-2.244-3.154-6.172-3.154-6.172l1.052,69.637
					C84.73,1217.207,82.557,1238.456,88.096,1241.052"/>
				<path clip-path="url(#SVGID_15_)" fill="#499D4A" d="M88.096,1241.052c0,0,25.177-16.551,19.285-50.984
					c-5.68-25.035-19.075-33.241-20.548-36.396c-1.611-2.244-3.154-6.172-3.154-6.172l1.052,69.637
					C84.73,1217.207,82.557,1238.456,88.096,1241.052"/>
				<path clip-path="url(#SVGID_15_)" fill="#FFFFFF" d="M82.206,1241.963c0,0-23.635-16.13-22.231-44.531
					c1.332-28.402,18.023-42.357,21.249-44.882c2.104-2.244,2.173-3.086,2.314-5.331c1.473,3.157,1.192,47.198,1.402,52.387
					C85.571,1219.591,83.819,1238.177,82.206,1241.963"/>
				<path clip-path="url(#SVGID_15_)" fill="#58AA50" d="M82.206,1241.963c0,0-23.635-16.13-22.231-44.531
					c1.332-28.402,18.023-42.357,21.249-44.882c2.104-2.244,2.173-3.086,2.314-5.331c1.473,3.157,1.192,47.198,1.402,52.387
					C85.571,1219.591,83.819,1238.177,82.206,1241.963"/>
				<path clip-path="url(#SVGID_15_)" fill="#83CD29" d="M210.17,1147.219c-1.456,0-2.871,0.301-4.125,1.01l-39.646,22.895
					c-2.566,1.479-4.125,4.271-4.125,7.241v45.708c0,2.967,1.559,5.755,4.125,7.237l10.353,5.977
					c5.031,2.48,6.886,2.441,9.175,2.441c7.448,0,11.701-4.52,11.701-12.372v-45.119c0-0.638-0.553-1.095-1.179-1.095h-4.966
					c-0.636,0-1.178,0.457-1.178,1.095v45.119c0,3.479-3.626,6.98-9.512,4.038l-10.774-6.313c-0.382-0.207-0.674-0.573-0.674-1.009
					v-45.709c0-0.433,0.289-0.874,0.674-1.094l39.562-22.81c0.363-0.214,0.814-0.214,1.178,0l39.563,22.811
					c0.377,0.227,0.674,0.647,0.674,1.095v45.707c0,0.437-0.22,0.884-0.589,1.094l-39.647,22.812c-0.339,0.202-0.807,0.202-1.178,0
					l-10.185-6.061c-0.315-0.17-0.696-0.17-1.01,0c-2.812,1.594-3.34,1.78-5.978,2.694c-0.647,0.227-1.633,0.58,0.339,1.684
					l13.298,7.826c1.254,0.725,2.678,1.103,4.126,1.097c1.447,0.008,2.871-0.369,4.124-1.095l39.646-22.813
					c2.566-1.49,4.124-4.271,4.124-7.238v-45.708c0-2.969-1.558-5.756-4.124-7.237l-39.646-22.896
					C213.052,1147.521,211.627,1147.22,210.17,1147.219L210.17,1147.219z"/>
				<path clip-path="url(#SVGID_15_)" fill="#83CD29" d="M220.777,1179.88c-11.29,0-18.014,4.805-18.014,12.795
					c0,8.667,6.673,11.049,17.509,12.12c12.963,1.27,13.973,3.174,13.973,5.725c0,4.425-3.529,6.312-11.868,6.312
					c-10.479,0-12.782-2.615-13.552-7.827c-0.092-0.56-0.524-1.01-1.096-1.01h-5.135c-0.631,0-1.177,0.545-1.177,1.18
					c0,6.671,3.629,14.561,20.96,14.561c12.546,0,19.781-4.924,19.781-13.552c0-8.552-5.845-10.849-18.015-12.457
					c-12.296-1.627-13.468-2.424-13.468-5.304c0-2.376,0.995-5.558,10.101-5.558c8.137,0,11.143,1.756,12.375,7.241
					c0.107,0.516,0.562,0.926,1.094,0.926h5.136c0.316,0,0.622-0.193,0.841-0.422c0.215-0.241,0.367-0.514,0.337-0.841
					C239.763,1184.322,233.465,1179.88,220.777,1179.88L220.777,1179.88z"/>
				<path clip-path="url(#SVGID_15_)" fill="#764ABC" d="M699.146,1222.645c4.199-0.435,7.382-4.055,7.238-8.396
					c-0.146-4.345-3.765-7.819-8.107-7.819h-0.29c-4.487,0.145-7.961,3.908-7.814,8.397c0.144,2.172,1.013,4.054,2.313,5.356
					c-4.921,9.699-12.449,16.793-23.74,22.729c-7.673,4.054-15.635,5.502-23.598,4.487c-6.513-0.869-11.58-3.764-14.765-8.541
					c-4.634-7.094-5.067-14.768-1.158-22.439c2.75-5.502,7.093-9.557,9.843-11.582c-0.578-1.883-1.447-5.068-1.881-7.383
					c-20.992,15.199-18.82,35.758-12.451,45.458c4.778,7.237,14.478,11.726,25.19,11.726c2.895,0,5.791-0.289,8.686-1.014
					C677.144,1250.006,691.186,1239.004,699.146,1222.645 M724.625,1204.693c-11.003-12.885-27.215-19.979-45.745-19.979h-2.316
					c-1.303-2.605-4.053-4.343-7.093-4.343h-0.29c-4.487,0.146-7.961,3.909-7.817,8.397c0.146,4.343,3.765,7.816,8.107,7.816h0.29
					c3.183-0.144,5.935-2.171,7.093-4.922h2.606c11.002,0,21.424,3.186,30.835,9.409c7.236,4.779,12.448,11.005,15.344,18.531
					c2.461,6.08,2.315,12.017-0.289,17.084c-4.053,7.672-10.858,11.871-19.833,11.871c-5.79,0-11.292-1.738-14.187-3.041
					c-1.593,1.449-4.487,3.764-6.516,5.213c6.225,2.895,12.596,4.488,18.675,4.488c13.897,0,24.176-7.674,28.084-15.345
					C735.772,1231.475,735.481,1216.999,724.625,1204.693 M651.085,1225.105c0.145,4.344,3.764,7.816,8.106,7.816h0.289
					c4.489-0.145,7.963-3.908,7.818-8.396c-0.145-4.344-3.765-7.815-8.107-7.815h-0.289c-0.29,0-0.724,0-1.013,0.144
					c-5.937-9.846-8.397-20.559-7.528-32.141c0.578-8.685,3.474-16.213,8.541-22.438c4.198-5.356,12.305-7.963,17.808-8.106
					c15.343-0.291,21.856,18.819,22.292,26.492c1.882,0.434,5.065,1.448,7.237,2.172c-1.737-23.453-16.213-35.613-30.109-35.613
					c-13.029,0-25.045,9.409-29.822,23.309c-6.66,18.53-2.317,36.336,5.791,50.379
					C651.374,1221.92,650.939,1223.514,651.085,1225.105"/>
			</g>
		</g>
	</g>
</g>
<rect y="526" fill="#3573D9" width="792" height="526"/>
<rect x="72" y="562" fill="none" width="264.755" height="23.141"/>
<text transform="matrix(1 0 0 1 86.2236 584.2598)" fill="#FFFFFF" font-family="'Montserrat-Regular'" font-size="30">Student Taught</text>
<rect x="435.108" y="562.06" fill="none" width="284.892" height="23.022"/>
<text transform="matrix(1 0 0 1 451.1816 584.3193)"><tspan x="0" y="0" fill="#FFFFFF" font-family="'Montserrat-Regular'" font-size="30">Contantly Evolv</tspan><tspan x="238.466" y="0" fill="#FFFFFF" font-family="'Montserrat-Regular'" font-size="30">-</tspan></text>
<rect x="122.049" y="812.532" fill="none" width="164.658" height="23.143"/>
<text transform="matrix(1 0 0 1 122.1191 834.792)" fill="#FFFFFF" font-family="'Montserrat-Regular'" font-size="30">Ground Up</text>
<g>
	<rect x="472.703" y="812.533" fill="none" width="209.703" height="23.141"/>
	<text transform="matrix(1 0 0 1 472.8262 834.793)" fill="#FFFFFF" font-family="'Montserrat-Regular'" font-size="30">Project Based</text>
</g>
<g>
	<g>
		<defs>
			<rect id="SVGID_18_" x="132.378" y="871.675" width="144" height="144"/>
		</defs>
		<clipPath id="SVGID_19_">
			<use xlink:href="#SVGID_18_"  overflow="visible"/>
		</clipPath>
		<g clip-path="url(#SVGID_19_)">
			<defs>
				<rect id="SVGID_20_" x="132.378" y="871.675" width="144" height="144"/>
			</defs>
			<clipPath id="SVGID_21_">
				<use xlink:href="#SVGID_20_"  overflow="visible"/>
			</clipPath>
			
				<line clip-path="url(#SVGID_21_)" fill="none" stroke="#2E302C" stroke-width="2" stroke-miterlimit="10" x1="132.378" y1="975.675" x2="276.378" y2="975.675"/>
		</g>
		
			<line clip-path="url(#SVGID_19_)" fill="none" stroke="#2E302C" stroke-width="4" stroke-miterlimit="10" x1="204.378" y1="938.675" x2="204.378" y2="974.675"/>
		<g clip-path="url(#SVGID_19_)">
			<defs>
				<rect id="SVGID_22_" x="132.378" y="871.675" width="144" height="144"/>
			</defs>
			<clipPath id="SVGID_23_">
				<use xlink:href="#SVGID_22_"  overflow="visible"/>
			</clipPath>
			<path clip-path="url(#SVGID_23_)" fill="none" stroke="#2E302C" stroke-width="4" stroke-miterlimit="10" d="M202.324,960.745
				c4.983-4.149-7.3-19.78-20.93-15.336c0,0-3.914,1.474-11.423-2.422C157.459,936.494,182.538,977.223,202.324,960.745z"/>
			<path clip-path="url(#SVGID_23_)" fill="none" stroke="#2E302C" stroke-width="2" stroke-miterlimit="10" d="M204.378,958.938
				c0,0-16.271-1.498-18.261-4.981"/>
			<path clip-path="url(#SVGID_23_)" fill="none" stroke="#2E302C" stroke-width="5" stroke-miterlimit="10" d="M205.252,938.684
				c-6.102-2.195,3.498-20.75,17.197-20.834c0,0,3.821-1.255,9.905-6.184C237.597,912.608,230.368,947.719,205.252,938.684z"/>
			<path clip-path="url(#SVGID_23_)" fill="none" stroke="#2E302C" stroke-width="2" stroke-miterlimit="10" d="M204.252,937.684
				c0,0,15.943-7.575,16.622-11.529"/>
		</g>
	</g>
</g>
<g>
	<g>
		<defs>
			<rect id="SVGID_24_" x="141.068" y="621.141" width="144" height="144"/>
		</defs>
		<clipPath id="SVGID_25_">
			<use xlink:href="#SVGID_24_"  overflow="visible"/>
		</clipPath>
		<g clip-path="url(#SVGID_25_)">
			<defs>
				<rect id="SVGID_26_" x="141.068" y="621.141" width="144" height="144"/>
			</defs>
			<clipPath id="SVGID_27_">
				<use xlink:href="#SVGID_26_"  overflow="visible"/>
			</clipPath>
			<path clip-path="url(#SVGID_27_)" fill="none" stroke="#2E302C" stroke-width="4" stroke-miterlimit="10" d="M212.688,637.557
				c24.583,0,44.597,17.471,44.56,35.305c0.022,4.499,0,87.279,0,87.279H168.89c0,0-0.023-82.78,0-87.279
				C168.853,655.027,188.105,637.557,212.688,637.557"/>
			
				<rect x="205.432" y="664.19" transform="matrix(0.7071 -0.7071 0.7071 0.7071 -412.662 347.4638)" clip-path="url(#SVGID_27_)" fill="none" stroke="#2E302C" stroke-width="2" stroke-miterlimit="10" width="15.273" height="15.274"/>
			
				<line clip-path="url(#SVGID_27_)" fill="none" stroke="#2E302C" stroke-width="2" stroke-miterlimit="10" x1="211.068" y1="668.141" x2="211.068" y2="675.141"/>
			
				<line clip-path="url(#SVGID_27_)" fill="none" stroke="#2E302C" stroke-width="2" stroke-miterlimit="10" x1="215.068" y1="668.141" x2="215.068" y2="675.141"/>
			
				<rect x="182.068" y="723.141" clip-path="url(#SVGID_27_)" fill="none" stroke="#2E302C" stroke-width="2" stroke-miterlimit="10" width="61" height="21"/>
			
				<line clip-path="url(#SVGID_27_)" fill="none" stroke="#2E302C" stroke-width="2" stroke-miterlimit="10" x1="182.068" y1="728.141" x2="243.068" y2="728.141"/>
			<path clip-path="url(#SVGID_27_)" fill="none" stroke="#2E302C" stroke-width="2" stroke-miterlimit="10" d="M204.068,638.391
				c0-6.627,4.029-12,9-12c4.972,0,9,5.373,9,12"/>
			<path clip-path="url(#SVGID_27_)" fill="none" stroke="#2E302C" stroke-width="2" stroke-miterlimit="10" d="M206.769,637.791
				c0-4.64,2.82-8.4,6.3-8.4c3.481,0,6.3,3.761,6.3,8.4"/>
		</g>
	</g>
</g>
<g>
	<g>
		<defs>
			<rect id="SVGID_28_" x="505.555" y="871.676" width="144" height="144"/>
		</defs>
		<clipPath id="SVGID_29_">
			<use xlink:href="#SVGID_28_"  overflow="visible"/>
		</clipPath>
		
			<line clip-path="url(#SVGID_29_)" fill="none" stroke="#2E302C" stroke-width="2" stroke-miterlimit="10" x1="566.555" y1="905.676" x2="566.555" y2="912.676"/>
		<g clip-path="url(#SVGID_29_)">
			<defs>
				<rect id="SVGID_30_" x="505.555" y="871.676" width="144" height="144"/>
			</defs>
			<clipPath id="SVGID_31_">
				<use xlink:href="#SVGID_30_"  overflow="visible"/>
			</clipPath>
			<path clip-path="url(#SVGID_31_)" fill="none" stroke="#2E302C" stroke-width="4" stroke-miterlimit="10" d="M561.38,898.676
				c0,1-1.612,3.6-3.601,3.6s-3.6-2.6-3.6-3.6h-21.625c-14.167,0-22.5,15.417-22.5,15.417c10.5-4.917,22.25-7.5,22.5-4.167v9.75h8
				v70h10v-70h3.625c0-2,1.611-3.6,3.6-3.6s3.601,1.6,3.601,3.6h10.175v-21H561.38z"/>
			<path clip-path="url(#SVGID_31_)" fill="none" stroke="#2E302C" stroke-width="4" stroke-miterlimit="10" d="M625.795,912.084
				c0-6.727-5.24-12.063-13.24-13.908v9.944l-5,3.793l-5-3.793v-9.944c-8,1.846-12.732,7.182-12.732,13.908
				c0,6.66,5.373,12.296,12.732,14.2v63.392h10v-63.193C620.275,924.82,625.795,919.014,625.795,912.084z"/>
		</g>
	</g>
</g>
<g>
	<g>
		<defs>
			<rect id="SVGID_32_" x="505.555" y="621.082" width="144" height="144"/>
		</defs>
		<clipPath id="SVGID_33_">
			<use xlink:href="#SVGID_32_"  overflow="visible"/>
		</clipPath>
		<g clip-path="url(#SVGID_33_)">
			<defs>
				<rect id="SVGID_34_" x="578.019" y="666.583" width="54" height="52.999"/>
			</defs>
			<clipPath id="SVGID_35_">
				<use xlink:href="#SVGID_34_"  overflow="visible"/>
			</clipPath>
			<path clip-path="url(#SVGID_35_)" fill="none" stroke="#2E302C" stroke-width="4" stroke-miterlimit="10" d="M576.887,716.705
				c-19.655,0-35.588-10.623-35.588-23.726s15.933-23.726,35.588-23.726c12.102,0,22.793,4.027,29.223,10.181
				c4.012,3.841,6.365,8.51,6.365,13.545C612.475,706.082,596.541,716.705,576.887,716.705z"/>
		</g>
		<g clip-path="url(#SVGID_33_)">
			<defs>
				<rect id="SVGID_36_" x="524.019" y="666.583" width="55" height="52.999"/>
			</defs>
			<clipPath id="SVGID_37_">
				<use xlink:href="#SVGID_36_"  overflow="visible"/>
			</clipPath>
			
				<ellipse clip-path="url(#SVGID_37_)" fill="none" stroke="#2E302C" stroke-width="4" stroke-miterlimit="10" cx="577.637" cy="692.979" rx="35.588" ry="23.726"/>
		</g>
		<path clip-path="url(#SVGID_33_)" fill="#FFFFFF" d="M587.018,716.582v-47V716.582z"/>
		
			<line clip-path="url(#SVGID_33_)" fill="none" stroke="#2E302C" stroke-width="2" stroke-miterlimit="10" x1="587.018" y1="669.582" x2="587.018" y2="716.582"/>
		<path clip-path="url(#SVGID_33_)" fill="#FFFFFF" d="M596.018,713.582v-40.001V713.582z"/>
		
			<line clip-path="url(#SVGID_33_)" fill="none" stroke="#2E302C" stroke-width="2" stroke-miterlimit="10" x1="596.018" y1="673.582" x2="596.018" y2="713.582"/>
		<polygon clip-path="url(#SVGID_33_)" fill="#FFFFFF" points="605.018,679.742 605.018,708.582 605.018,677.582 		"/>
		<polyline clip-path="url(#SVGID_33_)" fill="none" stroke="#2E302C" stroke-width="2" stroke-miterlimit="10" points="
			605.018,677.582 605.018,679.742 605.018,708.582 		"/>
		<path clip-path="url(#SVGID_33_)" fill="#FFFFFF" d="M568.018,716.582v-47V716.582z"/>
		
			<line clip-path="url(#SVGID_33_)" fill="none" stroke="#2E302C" stroke-width="2" stroke-miterlimit="10" x1="568.018" y1="669.582" x2="568.018" y2="716.582"/>
		<path clip-path="url(#SVGID_33_)" fill="#FFFFFF" d="M560.018,713.582v-41V713.582z"/>
		
			<line clip-path="url(#SVGID_33_)" fill="none" stroke="#2E302C" stroke-width="2" stroke-miterlimit="10" x1="560.018" y1="672.582" x2="560.018" y2="713.582"/>
		<path clip-path="url(#SVGID_33_)" fill="#FFFFFF" d="M551.018,708.582v-31V708.582z"/>
		
			<line clip-path="url(#SVGID_33_)" fill="none" stroke="#2E302C" stroke-width="2" stroke-miterlimit="10" x1="551.018" y1="677.582" x2="551.018" y2="708.582"/>
		<path clip-path="url(#SVGID_33_)" fill="#FFFFFF" d="M578.018,716.582v-47V716.582z"/>
		
			<line clip-path="url(#SVGID_33_)" fill="none" stroke="#2E302C" stroke-width="2" stroke-miterlimit="10" x1="578.018" y1="669.582" x2="578.018" y2="716.582"/>
		<g clip-path="url(#SVGID_33_)">
			<defs>
				<rect id="SVGID_38_" x="505.555" y="666.583" width="54.464" height="52.999"/>
			</defs>
			<clipPath id="SVGID_39_">
				<use xlink:href="#SVGID_38_"  overflow="visible"/>
			</clipPath>
			<path clip-path="url(#SVGID_39_)" fill="none" stroke="#2E302C" stroke-width="4" stroke-miterlimit="10" d="M505.35,716.705
				c-19.654,0-35.588-10.623-35.588-23.726s15.934-23.726,35.588-23.726c12.103,0,22.793,4.027,29.223,10.181
				c4.013,3.841,6.365,8.51,6.365,13.545C540.938,706.082,525.005,716.705,505.35,716.705z"/>
		</g>
		<path clip-path="url(#SVGID_33_)" fill="#FFFFFF" d="M515.018,716.582v-47V716.582z"/>
		
			<line clip-path="url(#SVGID_33_)" fill="none" stroke="#2E302C" stroke-width="2" stroke-miterlimit="10" x1="515.018" y1="669.582" x2="515.018" y2="716.582"/>
		<path clip-path="url(#SVGID_33_)" fill="#FFFFFF" d="M524.018,713.582v-40.001V713.582z"/>
		
			<line clip-path="url(#SVGID_33_)" fill="none" stroke="#2E302C" stroke-width="2" stroke-miterlimit="10" x1="524.018" y1="673.582" x2="524.018" y2="713.582"/>
		<polygon clip-path="url(#SVGID_33_)" fill="#FFFFFF" points="533.018,679.742 533.018,708.582 533.018,677.582 		"/>
		<polyline clip-path="url(#SVGID_33_)" fill="none" stroke="#2E302C" stroke-width="2" stroke-miterlimit="10" points="
			533.018,677.582 533.018,679.742 533.018,708.582 		"/>
		<g clip-path="url(#SVGID_33_)">
			<defs>
				<rect id="SVGID_40_" x="595.019" y="666.583" width="54.536" height="52.999"/>
			</defs>
			<clipPath id="SVGID_41_">
				<use xlink:href="#SVGID_40_"  overflow="visible"/>
			</clipPath>
			
				<ellipse clip-path="url(#SVGID_41_)" fill="none" stroke="#2E302C" stroke-width="4" stroke-miterlimit="10" cx="649.1" cy="692.979" rx="35.588" ry="23.726"/>
		</g>
		<path clip-path="url(#SVGID_33_)" fill="#FFFFFF" d="M639.019,716.582v-47V716.582z"/>
		
			<line clip-path="url(#SVGID_33_)" fill="none" stroke="#2E302C" stroke-width="2" stroke-miterlimit="10" x1="639.018" y1="669.582" x2="639.018" y2="716.582"/>
		<path clip-path="url(#SVGID_33_)" fill="#FFFFFF" d="M631.018,713.582v-41V713.582z"/>
		
			<line clip-path="url(#SVGID_33_)" fill="none" stroke="#2E302C" stroke-width="2" stroke-miterlimit="10" x1="631.018" y1="672.582" x2="631.018" y2="713.582"/>
		<path clip-path="url(#SVGID_33_)" fill="#FFFFFF" d="M622.018,708.582v-31V708.582z"/>
		
			<line clip-path="url(#SVGID_33_)" fill="none" stroke="#2E302C" stroke-width="2" stroke-miterlimit="10" x1="622.018" y1="677.582" x2="622.018" y2="708.582"/>
	</g>
</g>
</svg>
